# xmcd CD Database Entry
#
# Track frame offsets:
# 150
# 25573
# 38900
# 51184
# 62691
#
# Disc length: 1010 seconds
#
# Revision: 1
# Processed by: cddbd v1.4PL0 Copyright (c) Steve Scherf et al.
# Submitted via: tcd 2.0b
#
DISCID=3703f005
DTITLE=Ms. Sheila /Demo cuts
DYEAR=1900
DGENRE=
TTITLE0=Little Black Kitty
TTITLE1=Poor Black and Knappy Headed
TTITLE2=Like they way...
TTITLE3=Ain't Got No Heart at All
TTITLE4=Nobody Rides for Free
EXTD=Live recordings of Ms. Sheila
EXTT0=
EXTT1=
EXTT2=John Lee Hooker favorite 
EXTT3=Just like the Tin Man.\nInspired by one of Ms. Sheila's recen
EXTT3=t ex-boyfriends.
EXTT4=Ass, Gas, or Grass....\nInspired by the lead guitar players t
EXTT4=reatment of guest artists.
PLAYORDER=
